<!--?xml version="1.0" encoding="utf-8"?-->
<!-- Generator: Adobe Illustrator 18.1.1, SVG Export Plug-In . SVG Version: 6.00 Build 0)  -->

<svg version="1.1" id="_x31_0" xmlns="http://www.w3.org/2000/svg" xmlns:xlink="http://www.w3.org/1999/xlink" x="0px" y="0px" viewBox="0 0 512 512" style="width: 128px; height: 128px; opacity: 1;" xml:space="preserve">
<style type="text/css">
	.st0{fill:#374149;}
</style>
<g>
	<path class="st0" d="M485.206,416.457c-70.809-7.122-93.285-55.52-80.484-94.723c1.011-3.113,2.262-6.301,3.578-9.418
		c0.043-0.09,0.074-0.18,0.122-0.274c8.695,5.379,18.828,7.129,28.332,3.98c19.019-6.301,28.336-29.835,20.801-52.566
		c-2.817-8.511-8.133-15.527-14.477-20.706c9.18-23.258,15.32-50.832,12.043-85.586c-0.734-7.762-2.309-15.488-4.516-23.125
		c-0.011-0.035-0.019-0.07-0.031-0.106c-0.562-1.934-1.164-3.859-1.812-5.778c-0.469-1.406-0.962-2.801-1.473-4.191
		c-0.297-0.797-0.582-1.59-0.894-2.379c-16.485-42.691-53.914-79.75-100.047-101.351C304.796,0.577,255.784-6.599,207.351,6.999
		c-7.329,2.039-15.024,5.043-22.86,8.882c-1.374,0.664-2.738,1.458-4.109,2.168c-2.106,1.106-4.196,2.168-6.309,3.402
		c-3.39,1.961-6.754,4.118-10.106,6.383c-0.152,0.106-0.305,0.191-0.461,0.297c-11.359,7.734-22.375,17.222-32.676,28.394
		c-0.015,0.016-0.031,0.031-0.046,0.047c-3.137,3.41-6.188,6.996-9.176,10.722c-0.469,0.578-0.946,1.133-1.406,1.718
		c-2.543,3.238-4.985,6.63-7.39,10.09c-0.836,1.199-1.692,2.355-2.512,3.586c-2.058,3.094-4.016,6.332-5.957,9.598
		c-1.012,1.695-2.051,3.344-3.027,5.09c-1.825,3.258-3.528,6.668-5.223,10.086c-0.906,1.817-1.843,3.574-2.71,5.442
		c-1.962,4.218-3.766,8.613-5.52,13.066c-0.426,1.078-0.894,2.106-1.305,3.203c-8.91,23.562-14.902,50.175-16.625,79.793
		c-14.969-0.008-34.137,11.469-40.527,30.758c-7.531,22.734,1.785,46.27,20.805,52.57c3.133,1.035,6.324,1.367,9.515,1.383
		c0.047,0,0.094,0.008,0.145,0.008c0.066,0,0.133-0.012,0.199-0.012c3.855-0.023,7.672-0.703,11.375-2.058
		c1.55-0.531,3.098-1.133,4.629-1.852c12.23,64.086,43.902,129.871,91.55,173.082c0.23,0.207,0.465,0.414,0.696,0.625
		c2.312,2.074,4.656,4.102,7.038,6.07c0.141,0.118,0.282,0.238,0.422,0.355c5.137,4.219,10.453,8.168,15.93,11.844
		c0.156,0.11,0.312,0.211,0.469,0.313c63.926,42.633,150.504,46.274,253.672-32.313c1.422-1.078,2.844-2.203,4.266-3.313
		c2.11-1.64,4.218-3.304,6.34-5.015c2.316-1.863,4.637-3.766,6.957-5.703c0.809-0.68,1.625-1.375,2.438-2.062
		c6.426-5.43,12.867-11.047,19.336-17.031c-0.047-0.004-0.09-0.012-0.137-0.02C485.1,416.55,485.152,416.507,485.206,416.457z
		 M156.472,190.765c-13.684,0-24.805-12.961-24.805-29.039c0-16.004,11.121-28.961,24.805-28.961
		c13.68,0,24.797,12.957,24.797,28.961C181.268,177.804,170.152,190.765,156.472,190.765z M270.393,132.765
		c13.762,0,24.801,12.957,24.801,28.961c0,16.078-11.038,29.039-24.801,29.039c-13.679,0-24.718-12.961-24.718-29.039
		C245.675,145.721,256.714,132.765,270.393,132.765z M188.632,255.889c0-4,0.719-7.843,2-11.281h45.602
		c1.282,3.438,2,7.281,2,11.281c0,16.082-11.121,29.039-24.801,29.039C199.753,284.929,188.632,271.972,188.632,255.889z" style="fill: rgb(255, 255, 255);"></path>
</g>
</svg>
