<!--?xml version="1.0" encoding="utf-8"?-->
<!-- Generator: Adobe Illustrator 24.1.1, SVG Export Plug-In . SVG Version: 6.00 Build 0)  -->
<svg version="1.1" id="_x31_0" xmlns="http://www.w3.org/2000/svg" xmlns:xlink="http://www.w3.org/1999/xlink" x="0px" y="0px" viewBox="0 0 512 512" style="width: 128px; height: 128px; opacity: 1;" xml:space="preserve">
<style type="text/css">
	.st0{fill:#374149;}
</style>
<g>
	<path class="st0" d="M256,512c141.203,0,256-114.801,256-256C512,114.883,397.203,0,256,0C114.883,0,0,114.883,0,256
		C0,397.199,114.883,512,256,512z M256,34.883c120.641,0,218.402,99.038,218.402,221.117c0,122.16-97.762,221.199-218.402,221.199
		C135.363,477.199,37.602,378.16,37.602,256C37.602,133.922,135.363,34.883,256,34.883z" style="fill: rgb(255, 255, 255);"></path>
	<path class="st0" d="M247.363,219.199c2.957,8.082,14.32,8.082,17.278,0L305.043,108c6.878-25.039-11.68-49.758-37.36-49.758
		H244.32c-25.679,0-44.238,24.718-37.359,49.758L247.363,219.199z M243.922,83.84c7.36,0,13.282,6,13.282,13.442
		c0,7.359-5.922,13.359-13.282,13.359c-7.281,0-13.199-6-13.199-13.359C230.722,89.84,236.641,83.84,243.922,83.84z" style="fill: rgb(255, 255, 255);"></path>
	<path class="st0" d="M264.641,292.883c-2.958-8.161-14.321-8.161-17.278,0l-40.402,111.199
		c-6.878,25.038,11.68,49.758,37.359,49.758h23.363c25.68,0,44.238-24.719,37.36-49.758L264.641,292.883z M268.961,423.84
		c-7.359,0-13.278-6-13.278-13.359c0-7.442,5.918-13.442,13.278-13.442c7.282,0,13.203,6,13.203,13.442
		C282.164,417.84,276.242,423.84,268.961,423.84z" style="fill: rgb(255, 255, 255);"></path>
	<path class="st0" d="M117.922,186.481l106.242,49.679c7.758,3.602,15.758-4.48,12.238-12.32l-49.039-107.598
		c-12.641-22.641-43.043-26.801-61.199-8.481l-16.562,16.801C91.442,142.883,95.602,173.68,117.922,186.481z M146,161.84
		c-5.199,5.281-13.598,5.281-18.718,0c-5.199-5.199-5.199-13.68,0-18.879c5.121-5.281,13.519-5.281,18.718,0
		C151.121,148.16,151.121,156.641,146,161.84z" style="fill: rgb(255, 255, 255);"></path>
	<path class="st0" d="M394.082,325.519l-106.238-49.598c-7.762-3.602-15.762,4.481-12.242,12.321l49.039,107.598
		c12.641,22.641,43.121,26.801,61.203,8.48l16.558-16.801C420.562,369.199,416.402,338.32,394.082,325.519z M363.602,365.442
		c-5.199-5.199-5.199-13.68,0-18.961c5.199-5.199,13.519-5.199,18.718,0c5.203,5.281,5.203,13.762,0,18.961
		C377.121,370.641,368.801,370.641,363.602,365.442z" style="fill: rgb(255, 255, 255);"></path>
	<path class="st0" d="M109.844,305.762l109.758-41.039c8.082-2.961,8.082-14.402,0-17.441L109.844,206.32
		c-24.723-6.961-49.203,11.922-49.203,37.84v23.68C60.641,293.84,85.121,312.641,109.844,305.762z M86,268.242
		c0-7.359,5.922-13.359,13.203-13.359c7.359,0,13.278,6,13.278,13.359c0,7.438-5.918,13.438-13.278,13.438
		C91.922,281.68,86,275.68,86,268.242z" style="fill: rgb(255, 255, 255);"></path>
	<path class="st0" d="M402.164,206.32l-109.762,40.962c-8,3.038-8,14.48,0,17.441l109.762,41.039
		c24.719,6.879,49.199-11.922,49.199-37.922v-23.68C451.363,218.242,426.883,199.359,402.164,206.32z M408.481,229.519
		c7.281,0,13.202,6,13.202,13.442c0,7.359-5.922,13.359-13.202,13.359c-7.278,0-13.199-6-13.199-13.359
		C395.282,235.519,401.203,229.519,408.481,229.519z" style="fill: rgb(255, 255, 255);"></path>
	<path class="st0" d="M224.164,275.922l-106.242,49.598c-22.32,12.801-26.48,43.68-8.32,62l16.562,16.801
		c18.156,18.321,48.558,14.161,61.199-8.48l49.039-107.598C239.922,280.402,231.922,272.32,224.164,275.922z M163.043,386.402
		c-5.199,5.278-13.602,5.278-18.723,0c-5.199-5.203-5.199-13.68,0-18.961c5.122-5.199,13.524-5.199,18.723,0
		C168.164,372.722,168.164,381.199,163.043,386.402z" style="fill: rgb(255, 255, 255);"></path>
	<path class="st0" d="M287.844,236.16l106.238-49.679c22.32-12.801,26.48-43.598,8.32-61.918l-16.558-16.801
		c-18.082-18.32-48.562-14.16-61.203,8.481L275.602,223.84C272.082,231.68,280.082,239.762,287.844,236.16z M345.363,128.082
		c5.118-5.199,13.52-5.199,18.719,0c5.121,5.277,5.121,13.758,0,18.957c-5.199,5.281-13.602,5.281-18.719,0
		C340.164,141.84,340.164,133.359,345.363,128.082z" style="fill: rgb(255, 255, 255);"></path>
</g>
</svg>
